<?xml version="1.0" standalone="no"?>
<!DOCTYPE svg PUBLIC "-//W3C//DTD SVG 20010904//EN"
 "http://www.w3.org/TR/2001/REC-SVG-20010904/DTD/svg10.dtd">
<svg version="1.0" xmlns="http://www.w3.org/2000/svg"
 width="1868.000000pt" height="1868.000000pt" viewBox="0 0 1868.000000 1868.000000"
 preserveAspectRatio="xMidYMid meet">
<metadata>
Created by potrace 1.14, written by Peter Selinger 2001-2017
</metadata>
<g transform="translate(0.000000,1868.000000) scale(0.100000,-0.100000)"
fill="#000000" stroke="none">
<path d="M9279 18642 c-31 -20 -69 -44 -85 -52 -16 -8 -33 -19 -39 -23 -5 -4
-109 -69 -230 -144 -121 -74 -269 -165 -328 -201 -60 -37 -120 -74 -135 -83
-15 -9 -66 -40 -114 -70 -48 -30 -197 -121 -330 -203 -134 -82 -272 -168 -308
-191 -36 -23 -109 -68 -163 -101 -127 -76 -134 -81 -326 -199 -89 -55 -199
-123 -244 -151 -45 -27 -154 -95 -242 -149 -88 -54 -201 -124 -251 -154 -50
-31 -192 -119 -317 -196 -125 -77 -264 -162 -308 -190 -45 -27 -94 -57 -108
-66 -14 -9 -174 -107 -356 -219 -181 -111 -349 -214 -372 -229 -23 -14 -70
-43 -105 -65 -35 -21 -79 -49 -98 -61 -19 -12 -165 -102 -325 -200 -159 -97
-302 -186 -317 -196 -15 -10 -29 -19 -32 -19 -3 0 -24 -13 -48 -29 -24 -16
-59 -38 -78 -49 -19 -11 -156 -95 -305 -187 -148 -92 -282 -175 -297 -184 -67
-40 -312 -190 -409 -250 -58 -36 -114 -71 -125 -77 -49 -30 -713 -439 -744
-459 -19 -13 -79 -50 -134 -83 l-98 -60 -46 29 -45 28 -51 -82 c-92 -145 -158
-258 -155 -261 2 -1 37 -22 76 -47 40 -24 73 -50 74 -59 0 -8 1 -2045 1 -4527
l1 -4511 21 -11 c12 -6 28 -15 36 -21 68 -45 504 -310 510 -310 5 0 10 -3 12
-8 1 -4 57 -40 123 -80 66 -40 172 -105 235 -144 63 -39 127 -78 142 -87 15
-9 70 -43 123 -76 53 -33 109 -67 123 -76 139 -83 1090 -671 1099 -679 7 -5
14 -10 17 -10 2 0 54 -32 115 -70 62 -39 116 -70 121 -70 6 0 10 -4 10 -10 0
-5 4 -10 9 -10 5 0 62 -33 127 -74 264 -163 612 -378 652 -401 45 -26 340
-209 364 -226 15 -11 29 -19 32 -19 2 0 31 -17 63 -38 32 -22 77 -50 100 -63
23 -13 152 -91 285 -174 133 -82 250 -154 260 -160 10 -5 116 -71 235 -145
120 -74 226 -139 235 -145 10 -5 70 -43 135 -83 65 -40 127 -79 138 -85 11 -7
44 -28 75 -47 49 -32 256 -158 328 -201 15 -9 106 -65 202 -125 96 -60 183
-113 192 -119 10 -5 65 -39 123 -75 59 -36 114 -70 123 -75 9 -6 89 -55 177
-109 88 -55 205 -127 260 -161 55 -34 159 -97 230 -142 72 -44 176 -108 233
-143 l102 -63 0 -69 0 -68 200 0 200 0 0 65 c0 62 1 65 30 80 31 16 509 310
678 416 50 33 95 59 98 59 3 0 31 17 62 38 31 21 64 42 72 45 8 4 83 50 165
102 83 52 179 111 214 132 35 21 74 45 87 53 19 12 205 127 407 251 379 233
1050 647 1077 664 19 13 136 85 260 160 124 76 242 148 263 161 20 13 54 35
75 48 20 13 138 85 262 161 124 75 241 148 260 160 19 13 136 85 260 161 124
76 272 167 330 202 58 36 142 88 188 116 46 28 94 58 107 66 14 8 152 93 307
189 156 96 373 230 483 298 110 68 207 128 215 133 27 17 474 292 505 310 17
10 192 118 390 240 198 123 405 250 460 283 55 33 107 66 116 74 14 12 16 422
16 4540 0 2793 3 4528 9 4530 5 2 38 22 72 44 60 39 62 42 48 63 -8 11 -40 64
-72 116 -32 52 -73 119 -91 147 l-34 53 -39 -25 c-22 -14 -42 -25 -45 -25 -4
0 -44 24 -91 53 -105 65 -137 84 -200 122 -27 16 -127 78 -222 137 -95 59
-177 108 -182 108 -4 0 -10 3 -12 8 -2 4 -32 25 -68 46 -91 55 -398 244 -440
271 -31 20 -430 266 -472 290 -20 12 -179 110 -358 221 -133 82 -199 122 -395
242 -55 34 -107 66 -115 72 -8 6 -96 59 -195 120 -99 60 -184 113 -190 118 -5
4 -35 23 -65 41 -88 52 -122 72 -175 107 -49 31 -381 235 -420 257 -11 7 -33
21 -50 33 -16 11 -35 23 -40 25 -6 2 -119 71 -250 152 -132 82 -249 154 -260
160 -11 7 -34 22 -52 34 -17 13 -34 23 -37 23 -3 0 -37 20 -76 45 -39 25 -75
45 -80 45 -6 0 -10 3 -10 8 0 4 -9 12 -20 17 -17 9 -212 127 -459 281 -37 22
-102 62 -146 89 -44 26 -102 63 -130 80 -27 18 -158 99 -290 180 -132 81 -316
194 -410 252 -93 58 -186 115 -206 127 -20 11 -112 68 -205 125 -236 145 -294
181 -334 207 -64 41 -770 474 -772 474 -2 0 -28 -17 -59 -38z"/>
</g>
</svg>
